<svg width="800" height="800" viewBox="0 0 800 800" fill="none" xmlns="http://www.w3.org/2000/svg">
<g clip-path="url(#clip0_1_235)">
<path d="M742.67 0H57.33C25.6675 0 0 25.6675 0 57.33V742.67C0 774.332 25.6675 800 57.33 800H742.67C774.332 800 800 774.332 800 742.67V57.33C800 25.6675 774.332 0 742.67 0Z" fill="white"/>
<path d="M504.32 606.62L503.52 607.15V637.3C516.22 645.77 532.88 652.38 553.78 652.38C596.37 652.38 622.82 630.16 623.08 582.81L623.61 442.88H593.19V522.5C593.19 549.22 579.44 561.91 556.95 561.91C536.85 561.91 522.83 552.39 522.83 525.41V442.88H492.41V528.85C492.41 569.85 515.16 592.07 552.72 592.07C569.91 592.07 585.52 584.13 593.19 569.85H594.51L594.78 580.69C595.31 607.67 582.35 622.22 553.25 622.22C533.41 622.22 517.54 615.08 504.32 606.61V606.62ZM394.28 563.5C369.67 563.76 351.16 544.98 351.16 514.3C351.16 486.26 369.94 466.95 394.54 466.95C419.14 466.95 438.98 482.82 438.71 514.82V518.26C437.65 545.77 419.14 563.23 394.27 563.5H394.28ZM395.59 437.86C351.94 437.86 320.46 469.33 320.46 515.89C320.46 562.45 351.94 592.86 392.68 592.34C413.31 592.07 432.09 579.37 438.18 564.56H439.5V588.9H468.34L469.13 514.04C469.66 464.58 437.92 437.86 395.6 437.86H395.59ZM239.8 500.81H207V427.01H236.1C264.4 427.01 278.42 441.82 278.42 464.83C278.42 487.84 265.19 500.8 239.81 500.8L239.8 500.81ZM239.81 398.43H176.32V588.88H207V529.36H236.36C283.18 529.36 309.63 505.02 309.63 460.85C309.63 424.35 280.8 398.42 239.8 398.42" fill="#00B14F"/>
<path d="M126.11 260.02C126.11 303.03 158.56 336.01 200.52 336.01C242.48 336.01 261.21 309.89 261.21 281.13V270.84H202.37V286.67H245.12C245.38 302.24 231.14 320.44 200.53 320.44C166.75 320.44 143.27 295.37 143.27 260.02C143.27 224.67 168.6 200.39 203.43 200.39C226.12 200.39 244.06 205.93 260.69 217.54L261.75 216.75V201.97C249.35 193.26 228.24 184.82 202.91 184.82C159.9 184.82 126.13 218.07 126.13 260.02H126.11ZM101.59 260.02C101.59 317.02 143.81 359.5 200.54 359.5C252.26 359.5 283.92 327.05 283.92 274.54V247.63H202.39V262.93H269.15V277.18C269.15 318.34 243.55 343.94 200.54 343.94C153.31 343.94 118.22 307.79 118.22 260.03C118.22 212.27 155.16 176.91 202.92 176.91C225.61 176.91 246.19 182.45 261.76 193.27V177.7C246.72 166.88 226.93 161.34 202.92 161.34C145.66 161.34 101.6 204.88 101.6 260.02H101.59ZM317.44 273.48V355.01H333.01V273.74C333.01 255.53 344.89 242.6 362.56 242.6C367.84 242.6 372.59 243.92 377.6 246.03C379.71 241.02 381.82 236.79 384.46 232.84C378.92 229.15 370.74 226.77 362.82 226.77C336.17 226.77 317.44 246.03 317.44 273.47V273.48ZM294.49 355H310.06V273.47C310.06 241.28 331.7 219.38 363.1 219.38C373.65 219.38 384.47 222.81 389.22 225.71C392.12 222.28 395.29 218.59 399.51 215.15C389.75 208.29 376.55 204.33 362.3 204.33C320.87 204.33 294.49 232.3 294.49 273.72V354.99V355ZM538.56 263.71V286.67C547.8 274.27 555.71 263.45 563.1 254.48C581.84 231.52 598.2 218.86 623.52 218.86C657.82 218.86 682.89 244.72 682.89 281.13C682.89 317.54 658.35 343.93 624.58 343.93C597.14 343.93 573.39 325.19 567.85 299.6L556.77 314.64C565.48 339.71 591.07 359.5 624.32 359.5C667.07 359.5 698.46 325.2 698.46 281.13C698.46 237.06 666.8 203.03 623.52 203.03C580.24 203.03 558.08 236.54 538.56 263.72V263.71ZM586.85 275.33H586.32L574.18 291.95C576.29 310.95 595.55 336.28 624.58 336.28C653.61 336.28 675.51 312.27 675.51 280.87C675.51 249.47 653.61 226.25 623.53 226.25C593.45 226.25 577.36 247.62 565.48 263.45C559.68 271.1 549.65 283.5 538.57 299.07V324.4C548.86 309.1 562.85 291.15 573.14 278.76C590.55 257.91 601.11 242.08 623.27 242.08C645.43 242.08 659.68 258.7 659.68 280.87C659.68 303.04 645.7 320.71 624.58 320.71C602.42 320.71 586.85 300.39 586.85 277.7V275.33ZM571.28 147.62V213.32C576.03 209.63 581.31 205.14 586.85 203.03V147.62H571.28ZM548.06 237.33C552.81 231.26 558.09 224.67 563.63 219.12V147.61H548.06V237.32V237.33ZM484.73 312.53L484.47 312.27C477.87 317.54 467.06 320.71 456.76 320.71C435.65 320.71 419.82 304.88 419.82 281.39C419.82 257.9 435.39 241.81 456.23 241.81C478.66 241.81 492.38 258.17 492.38 280.07V355.01H507.95V279.28C507.95 248.67 486.58 226.25 456.5 226.25C426.42 226.25 403.73 248.68 403.73 281.4C403.73 314.12 426.42 337.07 456.5 336.28C467.84 336.02 479.46 331.8 484.73 328.11V312.54V312.53ZM380.24 281.13C380.24 327.05 412.7 359.5 456.5 359.5C466.26 359.5 477.61 356.6 484.73 351.06V335.49C479.98 339.45 468.37 343.94 456.5 343.94C420.61 343.94 396.34 318.61 396.34 281.14C396.34 243.67 422.2 218.87 456.5 218.87C490.8 218.87 515.34 243.94 515.34 279.03V355.02H531.17V278.77C531.17 234.97 500.3 202.78 456.5 202.78C412.7 202.78 380.24 236.82 380.24 281.15" fill="#00B14F"/>
</g>
<defs>
<clipPath id="clip0_1_235">
<rect width="800" height="800" fill="white"/>
</clipPath>
</defs>
</svg>
